PathFileType	4	(X/Y/Z)	regression/subject18/trials/walk2/markers.trc
DataRate	CameraRate	NumFrames	NumMarkers	Units	OrigDataRate	OrigDataStartFrame	OrigNumFrames
200.00000000000426	200.00000000000426	4	64	m	200.00000000000426	134	215
Frame#	Time	CLAV			C7			RACR			RASH			RPSH			RLEL			RMEL			RUA1			RUA2			RUA3			RFAsuperior			RFAradius			RFAulna			RASI			RPSI			RCAL			RTOE			RMT5			RTH1			RTH2			RTH3			RTB1			RTB2			RTB3			RLFC			RMFC			RLMAL			RMMAL			RHJC			RKJC			REJC			RAJC			RSJC			LACR			LASH			LPSH			LLEL			LMEL			LUA1			LUA2			LUA3			LFAsuperior			LFAradius			LFAulna			LASI			LPSI			LCAL			LTOE			LMT5			LTH1			LTH2			LTH3			LTB1			LTB2			LTB3			LLFC			LMFC			LLMAL			LMMAL			LHJC			LKJC			LEJC			LAJC			LSJC			
		X1	Y1	Z1	X2	Y2	Z2	X3	Y3	Z3	X4	Y4	Z4	X5	Y5	Z5	X6	Y6	Z6	X7	Y7	Z7	X8	Y8	Z8	X9	Y9	Z9	X10	Y10	Z10	X11	Y11	Z11	X12	Y12	Z12	X13	Y13	Z13	X14	Y14	Z14	X15	Y15	Z15	X16	Y16	Z16	X17	Y17	Z17	X18	Y18	Z18	X19	Y19	Z19	X20	Y20	Z20	X21	Y21	Z21	X22	Y22	Z22	X23	Y23	Z23	X24	Y24	Z24	X25	Y25	Z25	X26	Y26	Z26	X27	Y27	Z27	X28	Y28	Z28	X29	Y29	Z29	X30	Y30	Z30	X31	Y31	Z31	X32	Y32	Z32	X33	Y33	Z33	X34	Y34	Z34	X35	Y35	Z35	X36	Y36	Z36	X37	Y37	Z37	X38	Y38	Z38	X39	Y39	Z39	X40	Y40	Z40	X41	Y41	Z41	X42	Y42	Z42	X43	Y43	Z43	X44	Y44	Z44	X45	Y45	Z45	X46	Y46	Z46	X47	Y47	Z47	X48	Y48	Z48	X49	Y49	Z49	X50	Y50	Z50	X51	Y51	Z51	X52	Y52	Z52	X53	Y53	Z53	X54	Y54	Z54	X55	Y55	Z55	X56	Y56	Z56	X57	Y57	Z57	X58	Y58	Z58	X59	Y59	Z59	X60	Y60	Z60	X61	Y61	Z61	X62	Y62	Z62	X63	Y63	Z63	X64	Y64	Z64	

135	3.11	1.647723721299724	1.429376718118637	-0.5106315978690067	1.535972994233179	1.503784731458978	-0.5092416929141476	1.617025678997164	1.481083064410159	-0.3871209215406513	1.659889313803969	1.422610478837071	-0.3490491892727665	1.562540313114031	1.441876650158419	-0.3470102868972523	1.547121277435141	1.164601265620385	-0.2412969489262857	1.537492277005578	1.140934798562988	-0.3196490483505489	1.599480817633897	1.387656573398561	-0.3175254297542872	1.557283054045244	1.241269598781663	-0.2806655758317543	1.603141609528944	1.302759930581742	-0.2950108001550182	1.599025226031746	1.090624847114098	-0.268309901315728	1.690147126990329	0.9682396476801127	-0.2402789125353433	1.637708555118231	0.9330360637387121	-0.2484008801353552	1.64192726277874	0.9998200664031329	-0.3787757054419174	1.485123973121717	1.044015191526037	-0.4561936384672819	1.079470843259094	0.2370337288607225	-0.3837797023934783	1.234641733740463	0.04469296365148082	-0.4518656948049855	1.176744346808436	0.06306610665690399	-0.3521897522027602	1.561551171507852	0.7568413791986939	-0.3588372161454794	1.61377987065753	0.6573732122598468	-0.4234447605604265	1.525033134764577	0.6001320203797036	-0.3547166514351821	1.364538429874821	0.365905815722567	-0.365809790896757	1.322991854952255	0.2831928170358027	-0.4180588375725905	1.255337314094763	0.2521364431719221	-0.356159826138991	1.494345494310335	0.4919934259325962	-0.3597781952164903	1.489379465493933	0.4869825992137736	-0.4718805306703006	1.163116221365378	0.1968909008838596	-0.3519895100910037	1.161048623559546	0.1943379462352298	-0.4386268784793432	1.565444702583949	0.9152539137310164	-0.4381201616282064	1.494730955126293	0.4836459114442153	-0.4186667270636043	1.545571362747865	1.146957762486435	-0.285266997019185	1.144194717252601	0.1966512880709597	-0.4002924226785892	1.614286174430767	1.431635716792556	-0.3480940654549568	1.610959752856737	1.476589768744911	-0.6342849103600203	1.651956948851103	1.416734630659439	-0.672263636190403	1.54682002810597	1.437542095686495	-0.6700616216248476	1.525739191869608	1.160583554022896	-0.7733229780495365	1.522258529119043	1.136620854458458	-0.6945477042298114	1.588264068473787	1.382229802483914	-0.7007312883324914	1.54052217388337	1.236825767669547	-0.7345960868876625	1.588512000509103	1.297418302810718	-0.723854825210466	1.550556277938877	1.071379411457985	-0.7537240566411051	1.58353834909791	0.9267500324970358	-0.7991289014292865	1.521415657175642	0.9150136410445563	-0.7915071717040063	1.630350088028085	1.026355994277855	-0.6481296504857748	1.48106857344726	1.053310533056447	-0.5505463561700903	1.610465658121733	0.04953820854068922	-0.5993944096721949	1.857602905370287	0.04944578539138857	-0.53133671314134	1.806586526663073	0.01295712308467167	-0.6297789802717003	1.640054189889482	0.7890061597943721	-0.6673344129929092	1.733097357611405	0.7348996771132399	-0.5951447633434066	1.689510618741115	0.6360106707296385	-0.6599309561205845	1.714666100839643	0.3484414265930273	-0.6320077828080217	1.744231869403148	0.2639451609566404	-0.5747036176815601	1.721032472834531	0.1905844787684586	-0.633466881549428	1.718590852751514	0.5280860114570396	-0.6469727918258745	1.712001316433692	0.5280833402620252	-0.5348421472866103	1.696923680265218	0.08573914560043128	-0.6328237201550073	1.69540354158982	0.08690263739541615	-0.5461452245252836	1.558482031942869	0.9312129823230034	-0.6001132942886283	1.719043469738065	0.5263632650955192	-0.588060797720706	1.527547397658724	1.14270720486942	-0.7294569650048724	1.68289776440667	0.07441459004238277	-0.5841792937283807	1.606353809477902	1.425759868614925	-0.6713085123725934	
136	3.115	1.65418550072735	1.430262038476902	-0.5110127968893461	1.542333649629149	1.504519713782584	-0.5097203770493733	1.623259489550809	1.481850153725296	-0.3875095523451518	1.666152296250103	1.423411154797877	-0.3494191101299614	1.568775070159594	1.442545895090832	-0.3474935015381126	1.552873793092017	1.164929896122195	-0.2430694850480978	1.543443887730602	1.141611948329095	-0.3215501896323077	1.605612761393007	1.388274479401873	-0.3181812112255791	1.563202476786726	1.241760963870449	-0.2820757553109948	1.609147035979414	1.303277897473651	-0.2960263050302353	1.60424472216229	1.090575883997457	-0.2700690349778081	1.694029931023795	0.9672303434612618	-0.2419342148017729	1.64128226126261	0.9325660813494695	-0.2503683577345142	1.648796687435007	1.000282276990942	-0.3796773638954262	1.49201336354486	1.044670355570589	-0.4570253109643549	1.089332931338155	0.2451108854973186	-0.3832266333392069	1.236890865219465	0.04701405572205879	-0.4517319598356775	1.180155273013296	0.06765531957238738	-0.3518320892913516	1.570834524645795	0.7575798700681458	-0.3595656926244872	1.62445286499462	0.6587482496086683	-0.4240115801578482	1.536636262829326	0.6003586791377866	-0.3550551257259902	1.375796367361095	0.3676202031729623	-0.3657066209167292	1.332724162466549	0.285654201760036	-0.4178974313720653	1.264603221055393	0.2558093609441194	-0.3559140005973929	1.507541236953348	0.4917682626518918	-0.3598412544111455	1.502525345165594	0.4864337333523405	-0.4719264321445809	1.171420405119369	0.2022110571818953	-0.3516272686382574	1.169203439605471	0.1996884707825045	-0.4382618331096582	1.572303384203586	0.9158546584976939	-0.4392049412698202	1.507996092154475	0.4830248823766743	-0.4187318248794429	1.551432294860976	1.147479060456674	-0.2871200353862297	1.152439468118352	0.2023038291727573	-0.39990736309296	1.620535934688004	1.432374823888112	-0.3485170587851098	1.617517485399584	1.477503117963249	-0.6346838940624676	1.65864352159081	1.417726569570584	-0.6726470954526051	1.55347611741306	1.438392089086975	-0.6705674381734085	1.53301389555135	1.161534168829177	-0.7742842158384046	1.529192935369318	1.137520635965646	-0.6955401985947385	1.595093030687492	1.383168770212509	-0.7012756032123104	1.547581928747914	1.237760214820874	-0.7354442091535458	1.595490409384858	1.298371807740183	-0.7244503124984125	1.55798247924255	1.072378035320563	-0.7545624977968973	1.59167665354607	0.9278690933341243	-0.7998277439662534	1.529541403888447	0.9159469215823708	-0.7926072820207476	1.637260982269934	1.027372234060034	-0.6489779318235469	1.487972490363048	1.05415976947728	-0.5513593310537608	1.610812865396672	0.04987293757579078	-0.5999814553040496	1.857872492597413	0.04940618932809671	-0.5316440546348564	1.806857816825199	0.01254917714906201	-0.6299498878299782	1.645922934328814	0.7893483694367441	-0.6683565402329849	1.738671675562095	0.7346763888286514	-0.5962140868480217	1.694364297391913	0.6360318196917879	-0.6608839823399081	1.717333483283839	0.3483235005302973	-0.6327674583787087	1.746218541999057	0.2636218481737298	-0.5754193599867653	1.722360832939561	0.1904172333207395	-0.6341136267879265	1.722735993159445	0.52792525046841	-0.6478715774460977	1.716253391379922	0.5280508375639488	-0.5357347701843446	1.697364739090987	0.08578050469135895	-0.6333775990039798	1.695909692469083	0.08702058568472049	-0.546699048151768	1.565365653936324	0.9321469277961592	-0.6011659722055422	1.723246585970171	0.5262341197454163	-0.5889550599056936	1.534635013791605	1.143631525360536	-0.7304216133146916	1.683274317608074	0.07461101270738646	-0.5847159655759117	1.613027160028711	1.426690238660819	-0.6717450441077536	
137	3.12	1.660603435479133	1.431130818744776	-0.5113672877222464	1.548662132957261	1.505255577261284	-0.5101950038328755	1.629434257720501	1.482607289777754	-0.3878785898468616	1.672339826753609	1.424195829640678	-0.3497602908169902	1.574937323000815	1.443214407268734	-0.3479668630089645	1.558582387603549	1.165261814811621	-0.2447926568986823	1.549347986500441	1.142284048482483	-0.323396848181536	1.611676558397764	1.388886672159376	-0.3188122845055394	1.569068768761594	1.242250678777592	-0.2834441049111665	1.615092888409216	1.303794298785524	-0.2970093813108836	1.60941814125907	1.090536571526802	-0.2717809635088247	1.697866748465389	0.9662506448608458	-0.2435510764588376	1.64481799186619	0.9321257691434726	-0.2522909151617448	1.655568624415451	1.000785976504156	-0.3805379730979415	1.498806986867499	1.045326845103371	-0.4578420292885799	1.099489978000484	0.253244756638988	-0.3828391888868085	1.239523770923452	0.04984601404500415	-0.4516008491889796	1.183990913391561	0.07268329207622903	-0.3515032278507881	1.580137036954725	0.7583595860025516	-0.3602759069517596	1.635190702237229	0.660229272050802	-0.424583165228446	1.548360376544467	0.6006419100215323	-0.3554027417697381	1.387265638878967	0.3694536544300301	-0.3656626869591199	1.342684864359373	0.2882688471437911	-0.4178077013633349	1.274102716793376	0.2596470627431084	-0.3557560666900671	1.520929399412791	0.4916082708353522	-0.3599318841294179	1.51586594788326	0.4859659465755157	-0.4719998504550587	1.17998163859526	0.2077218818269495	-0.3513754675880715	1.177634719796051	0.205237213388281	-0.4380077048573541	1.579084864868143	0.9164734690556947	-0.4402407057407836	1.521453431201931	0.4824772415248064	-0.4188226777845818	1.557247620023748	1.147999277427503	-0.2889206952216948	1.160957888441534	0.2081525221818342	-0.3996368763491842	1.626711623870613	1.43310508233054	-0.3489201595603206	1.624062177196195	1.478403747805188	-0.6350637300165385	1.66531479837567	1.418698890138092	-0.6730023971927215	1.560120094322653	1.439238953976392	-0.6710654951600538	1.540267705713975	1.162484225049609	-0.7752452119953994	1.536078858849139	1.138421076960201	-0.6965350588069987	1.601910915234669	1.384097881140351	-0.701804928626741	1.554620120534552	1.238692073706922	-0.736289393561351	1.602452006816175	1.299315266209808	-0.7250291687714074	1.565397582566064	1.073381623952521	-0.7553872810907338	1.599852835085092	0.9290004135517962	-0.8004869026399182	1.537709129054105	0.9168774139501462	-0.7936857864526495	1.64410072794151	1.028375681822247	-0.6497906976245336	1.494789866574442	1.054991317168028	-0.5521592901842132	1.611135769851344	0.05016916597449048	-0.6005207121342127	1.858131449276261	0.04937761220882822	-0.5319555215140632	1.807104623575671	0.01215550459808038	-0.6301173832274203	1.651680786801578	0.7896605202174266	-0.669338011053629	1.744117389830678	0.7343954569371416	-0.597246851779846	1.699059124565667	0.6360153115268037	-0.6618006269118484	1.719864268008148	0.3481767057985818	-0.633495837905349	1.748106836961733	0.2632848784884556	-0.5761089415531666	1.723609858591776	0.1902339318605562	-0.6347312932645892	1.726689071717591	0.5277229801974184	-0.6487368178684118	1.720318556249043	0.5279753305836317	-0.5365938007306623	1.697766633721281	0.08580391917440566	-0.6338996674427606	1.696390235846699	0.0871181443848183	-0.5472209244871278	1.572187915671662	0.9330662937604813	-0.6021729630029309	1.727254571888071	0.5260650058757531	-0.5898172896572553	1.541685603503896	1.144555380987994	-0.7313862712405315	1.683624582801977	0.07478409363038147	-0.5852188915922366	1.619686595492674	1.427608142827954	-0.6721622659360518	
138	3.125	1.666976351573374	1.431970356964777	-0.5116952053495009	1.554961437208851	1.505985992149136	-0.5106685636857886	1.635550405680076	1.483346444697625	-0.3882297820557928	1.678448645735029	1.42495491529529	-0.3500727179054339	1.58102488253232	1.443878131628412	-0.3484317844387229	1.564242196424599	1.165590719963721	-0.2464650257822731	1.555199993471865	1.142944169928069	-0.3251875964573042	1.6176690309801	1.389486387955513	-0.3194189583087326	1.5748777108852	1.242732207259368	-0.2847698631791122	1.620975398478151	1.304302405333456	-0.2979595327928792	1.614540360078362	1.090499924717319	-0.2734431481871046	1.701651770916743	0.9652931308291166	-0.2451246900229983	1.648309548594229	0.9317078393553857	-0.2541633854111628	1.66224337801503	1.001341628116748	-0.3813549257264272	1.505493479191094	1.045974421565655	-0.4586297602681219	1.109912354582767	0.2613948218781602	-0.3826425141252806	1.242649557233097	0.05319035164898968	-0.4514931581736348	1.188354555104682	0.07813486639194819	-0.3512195461951562	1.589462592028868	0.7591742521628143	-0.360973462804665	1.645984059185088	0.6618171161438355	-0.4251824953550918	1.56020248534184	0.6009805189338763	-0.3557813412412516	1.398945033550539	0.3714040261236875	-0.3657092938230878	1.352872948673947	0.2910370555621685	-0.4178248764829267	1.283843476704086	0.2636392014851419	-0.3557168056369878	1.534501575309676	0.4915169714801583	-0.3600826333100518	1.529381204549553	0.4855962057791686	-0.4721336474848591	1.188811916166053	0.2134064178076714	-0.351260196100268	1.186345562698738	0.2109755960677336	-0.4378906430899056	1.585793099071048	0.9171094218808207	-0.4412136840979098	1.535088050588038	0.4820147227171515	-0.4189730918840615	1.563012611886766	1.148511738242576	-0.2906674812898635	1.169756958883682	0.2141838659191038	-0.3995049499501421	1.63281048386272	1.433819495986541	-0.3493040226229531	1.63059660779412	1.479278150353251	-0.6354259215940354	1.671970602345702	1.419634838075725	-0.6733292080708281	1.566752938086776	1.440071911715497	-0.6715569999267802	1.547506536362553	1.163416995668545	-0.7762038020330828	1.542922325598892	1.13930621382232	-0.6975302679863057	1.608719039388421	1.385002331670919	-0.7023191526855351	1.561641052064726	1.239605303907449	-0.7371302694108179	1.609399745177525	1.300233619016762	-0.725590420365727	1.572806264711315	1.074373690145581	-0.7561957868058337	1.608068104394595	0.9301269762487261	-0.8011019378201183	1.545920569117078	0.9177889722241002	-0.7947364044082095	1.650842571726264	1.029361392373068	-0.6505660855639335	1.501499860099407	1.055789540132214	-0.5529324613570478	1.611435369051019	0.05042829750651834	-0.6010072498772655	1.858381884051938	0.04935802444349578	-0.5322689721770724	1.807328391711442	0.01177892812230897	-0.630280837635386	1.657325763769191	0.7899398662757338	-0.6702666363107941	1.749436022693436	0.7340606268018587	-0.5982312363944953	1.703604317983077	0.6359627406775059	-0.6626699650033095	1.722271040790773	0.3480034646615511	-0.6341847521560358	1.74990531482546	0.2629341345273521	-0.5767645737587084	1.724786537032365	0.1900355117240846	-0.6353133625440976	1.730467225747382	0.527483344317391	-0.6495584867157029	1.724213835645492	0.5278593423576299	-0.5374092237733308	1.698132380662756	0.0858103437710972	-0.6343850650486174	1.696846383049464	0.08719514197196876	-0.5477060325005844	1.578936498826077	0.9339608898908726	-0.6031209437896969	1.731085516659308	0.5258590201222866	-0.5906372392562079	1.548705209240156	1.145462535810789	-0.7323488009247014	1.683950031147082	0.07493453562167413	-0.585683629177115	1.626332440473393	1.428499418766976	-0.6725605127883473	
